<svg xmlns="http://www.w3.org/2000/svg" viewBox="0 0 120 120" fill="none">
  <defs>
    <linearGradient id="pg" x1="32" y1="28" x2="88" y2="86" gradientUnits="userSpaceOnUse">
      <stop stop-color="#4C1D95"/>
      <stop offset="1" stop-color="#8B5CF6"/>
    </linearGradient>
    <radialGradient id="glow" cx="60" cy="57" r="45" gradientUnits="userSpaceOnUse">
      <stop stop-color="#8B5CF6" stop-opacity=".15"/>
      <stop offset="1" stop-color="#8B5CF6" stop-opacity="0"/>
    </radialGradient>
    <linearGradient id="ib" x1="60" y1="4" x2="60" y2="30" gradientUnits="userSpaceOnUse">
      <stop stop-color="#C4B5FD" stop-opacity="0"/>
      <stop offset="1" stop-color="#C4B5FD" stop-opacity=".8"/>
    </linearGradient>
    <linearGradient id="ob-l" x1="46" y1="78" x2="22" y2="114" gradientUnits="userSpaceOnUse">
      <stop stop-color="#C4B5FD" stop-opacity=".7"/>
      <stop offset="1" stop-color="#C4B5FD" stop-opacity="0"/>
    </linearGradient>
    <linearGradient id="ob-c" x1="60" y1="86" x2="60" y2="114" gradientUnits="userSpaceOnUse">
      <stop stop-color="#C4B5FD" stop-opacity=".7"/>
      <stop offset="1" stop-color="#C4B5FD" stop-opacity="0"/>
    </linearGradient>
    <linearGradient id="ob-r" x1="74" y1="78" x2="98" y2="114" gradientUnits="userSpaceOnUse">
      <stop stop-color="#C4B5FD" stop-opacity=".7"/>
      <stop offset="1" stop-color="#C4B5FD" stop-opacity="0"/>
    </linearGradient>
  </defs>
  <!-- Ambient glow -->
  <circle cx="60" cy="57" r="45" fill="url(#glow)"/>
  <!-- Input beam -->
  <line x1="60" y1="4" x2="60" y2="30" stroke="url(#ib)" stroke-width="2" stroke-linecap="round"/>
  <!-- Prism body -->
  <path d="M60 28L88 44L88 70L60 86L32 70L32 44Z" fill="url(#pg)"/>
  <!-- Facet lines -->
  <path d="M60 28L60 86" stroke="#C4B5FD" stroke-width=".5" opacity=".2"/>
  <path d="M32 44L88 70" stroke="#C4B5FD" stroke-width=".5" opacity=".15"/>
  <path d="M88 44L32 70" stroke="#C4B5FD" stroke-width=".5" opacity=".15"/>
  <!-- Upper facet highlights -->
  <path d="M60 28L88 44L60 57Z" fill="white" opacity=".08"/>
  <path d="M60 28L32 44L60 57Z" fill="white" opacity=".04"/>
  <!-- Center lens point -->
  <circle cx="60" cy="57" r="6" fill="#1C0F2B"/>
  <circle cx="58" cy="55" r="1.8" fill="white" opacity=".5"/>
  <!-- Output beams -->
  <line x1="46" y1="78" x2="22" y2="114" stroke="url(#ob-l)" stroke-width="2" stroke-linecap="round"/>
  <line x1="60" y1="86" x2="60" y2="114" stroke="url(#ob-c)" stroke-width="2" stroke-linecap="round"/>
  <line x1="74" y1="78" x2="98" y2="114" stroke="url(#ob-r)" stroke-width="2" stroke-linecap="round"/>
</svg>
